<svg width="24" height="24" viewBox="0 0 24 24" fill="none" xmlns="http://www.w3.org/2000/svg">
<circle cx="12" cy="12" r="9" fill="black"/>
<path fill-rule="evenodd" clip-rule="evenodd" d="M16.2426 7.75729C15.7405 7.25519 14.9265 7.25519 14.4244 7.75729L12.7071 9.47455C12.3166 9.86507 11.6834 9.86507 11.2929 9.47455L9.57563 7.75729C9.07353 7.25519 8.25946 7.25519 7.75736 7.75729C7.25526 8.25939 7.25526 9.07346 7.75736 9.57556L9.47462 11.2928C9.86514 11.6833 9.86514 12.3165 9.47462 12.707L7.75736 14.4243C7.25526 14.9264 7.25526 15.7405 7.75736 16.2426C8.25946 16.7447 9.07353 16.7447 9.57563 16.2426L11.2929 14.5253C11.6834 14.1348 12.3166 14.1348 12.7071 14.5253L14.4244 16.2426C14.9265 16.7447 15.7405 16.7447 16.2426 16.2426C16.7447 15.7405 16.7447 14.9264 16.2426 14.4243L14.5254 12.707C14.1349 12.3165 14.1349 11.6833 14.5254 11.2928L16.2426 9.57556C16.7447 9.07346 16.7447 8.25939 16.2426 7.75729Z" fill="white"/>
</svg>
