<svg width="18" height="18" viewBox="0 0 18 18" fill="none" xmlns="http://www.w3.org/2000/svg">
<path d="M1.65 2.25C1.15294 2.25 0.75 2.65294 0.75 3.15C0.75 3.64706 1.15294 4.05 1.65 4.05H2.55V16.2C2.55 17.1941 3.35589 18 4.35 18H14.25C15.2441 18 16.05 17.1941 16.05 16.2V4.05H16.95C17.4471 4.05 17.85 3.64706 17.85 3.15C17.85 2.65294 17.4471 2.25 16.95 2.25H1.65Z" fill="black"/>
<rect x="7.05078" width="4.05" height="1.8" rx="0.9" fill="black"/>
<rect x="6.15039" y="5.84961" width="1.8" height="9" rx="0.9" fill="white"/>
<rect x="10.6504" y="5.84961" width="1.8" height="9" rx="0.9" fill="white"/>
</svg>
