<svg width="24" height="24" viewBox="0 0 24 24" fill="none" xmlns="http://www.w3.org/2000/svg">
<path d="M3 20.1077V17.8002C3 17.5636 3.09401 17.3366 3.26136 17.1693L13.0772 7.35347C13.4256 7.00498 13.9906 7.00498 14.3391 7.35346L16.6465 9.66088C16.995 10.0094 16.995 10.5744 16.6465 10.9228L6.83074 20.7386C6.66339 20.906 6.43642 21 6.19976 21H3.89234C3.39952 21 3 20.6005 3 20.1077Z" fill="black"/>
<path d="M17.4082 9.5302L14.4698 6.5918C14.2956 6.41756 14.2956 6.13506 14.4698 5.96082L15.1773 5.25328C15.3516 5.07904 15.6341 5.07904 15.8083 5.25328L18.7467 8.19168C18.921 8.36592 18.921 8.64842 18.7467 8.82266L18.0392 9.5302C17.8649 9.70444 17.5824 9.70444 17.4082 9.5302Z" fill="black"/>
<path d="M19.1929 7.74551L16.2545 4.80711C16.0803 4.63287 16.0802 4.35037 16.2545 4.17613L16.9079 3.52272C17.6049 2.82576 18.7349 2.82576 19.4318 3.52272L20.4773 4.56817C21.1742 5.26514 21.1742 6.39514 20.4773 7.0921L19.8239 7.74551C19.6496 7.91975 19.3671 7.91975 19.1929 7.74551Z" fill="black"/>
</svg>
