<svg width="32" height="32" viewBox="0 0 32 32" fill="none" xmlns="http://www.w3.org/2000/svg">
<path fill-rule="evenodd" clip-rule="evenodd" d="M15.6668 22.72C17.2657 22.72 18.9435 22.3947 20.5358 21.7421C20.8636 21.6078 21.2448 21.7457 21.3935 22.0672C21.5411 22.3867 21.4033 22.7668 21.0783 22.9018C19.317 23.6332 17.4535 24 15.6668 24C13.88 24 12.0165 23.6332 10.2553 22.9018C9.93024 22.7668 9.79242 22.3867 9.94008 22.0672C10.0887 21.7457 10.47 21.6078 10.7977 21.7421C12.39 22.3947 14.0678 22.72 15.6668 22.72Z" fill="black"/>
<path fill-rule="evenodd" clip-rule="evenodd" d="M10.0813 11.9743C8.4864 12.9379 6.95459 14.3273 5.59564 16.1541C5.24095 16.6309 4.602 16.8122 4.06456 16.5586C3.47349 16.2796 3.21002 15.575 3.52934 15.0047C6.15076 10.3232 11.1784 8 15.6667 8C20.1544 8 24.8914 10.3227 27.474 15.0029C27.7898 15.5751 27.5265 16.2796 26.9355 16.5586C26.398 16.8122 25.759 16.631 25.4044 16.1541C24.1731 14.4981 22.8032 13.2016 21.3967 12.2558C21.8016 13.0976 22.0286 14.0421 22.0286 15.04C22.0286 18.5746 19.1804 21.44 15.667 21.44C12.1535 21.44 9.30535 18.5746 9.30535 15.04C9.30535 13.9293 9.58659 12.8847 10.0813 11.9743Z" fill="black"/>
</svg>
