<svg width="26" height="12" viewBox="0 0 26 12" fill="none" xmlns="http://www.w3.org/2000/svg">
<path fill-rule="evenodd" clip-rule="evenodd" d="M12.6672 10.7202C14.2662 10.7202 15.9439 10.395 17.5362 9.74237C17.864 9.60803 18.2452 9.7459 18.3939 10.0674C18.5415 10.3869 18.4037 10.767 18.0787 10.902C16.3174 11.6334 14.454 12.0002 12.6672 12.0002C10.8804 12.0002 9.01694 11.6334 7.25569 10.902C6.93067 10.767 6.79284 10.3869 6.94051 10.0674C7.08914 9.7459 7.4704 9.60803 7.79817 9.74237C9.39047 10.395 11.0682 10.7202 12.6672 10.7202Z" fill="black"/>
<path fill-rule="evenodd" clip-rule="evenodd" d="M12.6667 6C16.7529 6 20.4418 4.27253 22.5479 0.81758C22.8334 0.349205 23.3762 0.0850275 23.9112 0.205994C24.6462 0.372159 25.0461 1.17339 24.6641 1.82287C22.0066 6.34117 17.0763 8.58374 12.6667 8.58374C8.29959 8.58374 3.42182 6.38422 0.746848 1.95296C0.319199 1.24453 0.765662 0.365977 1.57534 0.195133C2.12644 0.0788478 2.68388 0.335758 3.0008 0.801382C5.09307 3.87541 8.61354 6 12.6667 6Z" fill="black"/>
</svg>
