<svg width="24" height="24" viewBox="0 0 24 24" fill="none" xmlns="http://www.w3.org/2000/svg">
<path fill-rule="evenodd" clip-rule="evenodd" d="M3 19.2733V16.2519C3 15.7752 3.38649 15.3887 3.86325 15.3887V15.3887C4.34001 15.3887 4.7265 15.7752 4.7265 16.2519V17.331C4.7265 18.4037 5.5961 19.2733 6.66881 19.2733H17.4594C18.5321 19.2733 19.4017 18.4037 19.4017 17.331V16.2519C19.4017 15.7752 19.7882 15.3887 20.265 15.3887V15.3887C20.7418 15.3887 21.1282 15.7752 21.1282 16.2519V19.2733C21.1282 20.2268 20.3553 20.9998 19.4017 20.9998H4.7265C3.77298 20.9998 3 20.2268 3 19.2733Z" fill="black"/>
<path fill-rule="evenodd" clip-rule="evenodd" d="M10.7196 4.22304C11.4824 3.52955 12.6474 3.52955 13.4103 4.22304L15.8915 6.47869C16.2442 6.79939 16.2702 7.34535 15.9495 7.69812V7.69812C15.6288 8.0509 15.0829 8.0769 14.7301 7.75619L12.9282 6.11807V16.2521C12.9282 16.7289 12.5417 17.1154 12.0649 17.1154V17.1154C11.5882 17.1154 11.2017 16.7289 11.2017 16.2521V6.11807L9.39973 7.75619C9.04696 8.0769 8.501 8.0509 8.18029 7.69812V7.69812C7.85959 7.34535 7.88559 6.79939 8.23836 6.47869L10.7196 4.22304Z" fill="black"/>
</svg>
